<svg width="80" height="72" viewBox="0 0 80 72" fill="none" xmlns="http://www.w3.org/2000/svg">
<path d="M33.9044 23.4497C32.8296 24.7498 32.0874 26.3562 31.7627 28.0548C30.8081 33.0347 28.714 37.7264 25.6421 41.7609L25.578 41.8439L21.203 47.5922C19.917 49.328 19.2188 51.189 19.2188 53.125C19.2188 61.2323 32.1509 68.028 48.8281 69.8383C65.5054 68.028 78.4375 61.2323 78.4375 53.125C78.4375 51.189 77.7393 49.328 76.4532 47.5922L72.1875 41.9281L71.3281 40.7874C69.9548 38.9624 68.8049 36.9891 67.8986 34.9097C66.9904 32.8296 66.3263 30.6439 65.9235 28.3954C65.0861 23.717 61.0156 20.3125 56.2622 20.3125H40.6372C39.7498 20.3125 38.8812 20.4376 38.053 20.675C36.3904 21.153 34.9811 22.1484 33.9044 23.4497Z" fill="url(#paint0_linear)"/>
<path d="M30.625 31.25C31.4874 31.25 32.1875 30.5499 32.1875 29.6875C32.1875 28.8251 31.4874 28.125 30.625 28.125C29.7626 28.125 29.0625 28.8251 29.0625 29.6875C29.0625 30.5499 29.7626 31.25 30.625 31.25Z" fill="white"/>
<path d="M40 25C38.7891 25 37.5702 25.1086 36.3782 25.3229C35.5286 25.4761 34.964 26.2878 35.1166 27.1375C35.2698 27.9871 36.0815 28.5522 36.9312 28.3984C37.9413 28.2172 38.974 28.125 40 28.125C49.4769 28.125 57.1875 35.8356 57.1875 45.3125C57.1875 54.7894 49.4769 62.5 40 62.5C30.5231 62.5 22.8125 54.7894 22.8125 45.3125C22.8125 41.6479 23.9545 38.15 26.1145 35.1959C26.6235 34.4989 26.4722 33.5211 25.7751 33.0121C25.0787 32.5024 24.101 32.6544 23.5919 33.3508C21.0376 36.8445 19.6875 40.9802 19.6875 45.3125C19.6875 56.5131 28.7994 65.625 40 65.625C51.2006 65.625 60.3125 56.5131 60.3125 45.3125C60.3125 34.1119 51.2006 25 40 25Z" fill="white"/>
<path d="M26.7188 48.4377C26.7188 49.3008 27.4182 50.0002 28.2813 50.0002H31.2726C31.8048 51.578 32.6184 53.0288 33.6627 54.2489C35.7361 56.6659 38.5114 57.9971 41.4783 57.9971C44.1022 57.9971 46.6388 56.9216 48.6212 54.9697C49.2365 54.3643 49.2438 53.3749 48.6383 52.7596C48.0328 52.145 47.0435 52.1377 46.4288 52.7432C45.0342 54.1158 43.2764 54.8721 41.4783 54.8721C39.4379 54.8721 37.5043 53.9279 36.0352 52.2152C35.4749 51.5609 35.0055 50.8114 34.6332 50.0002H42.8638C43.7268 50.0002 44.4263 49.3002 44.4263 48.4377C44.4263 47.5747 43.7268 46.8752 42.8638 46.8752H33.7506C33.6945 46.4218 33.6658 45.9609 33.6658 45.4971C33.6658 44.9075 33.7122 44.3234 33.8031 43.7502H42.8638C43.7268 43.7502 44.4263 43.0502 44.4263 42.1877C44.4263 41.3247 43.7268 40.6252 42.8638 40.6252H34.8096C35.152 39.9532 35.5627 39.3307 36.0345 38.7795C37.5037 37.0657 39.4366 36.1221 41.4783 36.1221C43.5193 36.1221 45.4529 37.0657 46.9214 38.7795C47.4829 39.4344 48.4692 39.5107 49.1248 38.9486C49.7797 38.3871 49.856 37.4008 49.2938 36.7458C47.2217 34.3282 44.4458 32.9971 41.4783 32.9971C38.5101 32.9971 35.7343 34.3282 33.6621 36.7458C32.7051 37.8622 31.9366 39.1873 31.4038 40.6246H28.2813C27.4182 40.6246 26.7188 41.3247 26.7188 42.1871C26.7188 43.0502 27.4182 43.7496 28.2813 43.7496H30.6482C30.5774 44.3264 30.5408 44.9099 30.5408 45.4971C30.5408 45.9591 30.564 46.4193 30.6073 46.8746H28.2813C27.4182 46.8752 26.7188 47.5747 26.7188 48.4377Z" fill="white"/>
<path d="M77.7014 46.6522L73.75 41.4056V29.6875C73.75 20.2106 66.0394 12.5 56.5625 12.5H45.2924L46.3348 9.37256C48.8806 9.32739 50.9375 7.24365 50.9375 4.6875C50.9375 2.10266 48.8348 0 46.25 0C43.6652 0 41.5625 2.10266 41.5625 4.6875C41.5625 6.18713 42.2711 7.5238 43.371 8.38257L41.9989 12.5H38.0011L36.629 8.38257C37.7289 7.5238 38.4375 6.18713 38.4375 4.6875C38.4375 2.10266 36.3348 0 33.75 0C31.1652 0 29.0625 2.10266 29.0625 4.6875C29.0625 7.24365 31.1194 9.32739 33.6652 9.37256L34.7076 12.5H23.4375C13.9606 12.5 6.25 20.2106 6.25 29.6875V41.4618L2.30347 46.6455C2.2998 46.651 2.29553 46.6565 2.29126 46.662C0.770874 48.7146 0 50.8893 0 53.125C0 58.3459 4.39758 63.1696 12.3816 66.7072C19.9042 70.0397 29.7125 71.875 40 71.875C50.2875 71.875 60.0958 70.0397 67.6184 66.7072C75.6024 63.1696 80 58.3459 80 53.125C80 50.8893 79.2291 48.7146 77.7014 46.6522ZM46.25 3.125C47.1118 3.125 47.8125 3.82568 47.8125 4.6875C47.8125 5.54932 47.1118 6.25 46.25 6.25C45.3882 6.25 44.6875 5.54932 44.6875 4.6875C44.6875 3.82568 45.3882 3.125 46.25 3.125ZM32.1875 4.6875C32.1875 3.82568 32.8882 3.125 33.75 3.125C34.6118 3.125 35.3125 3.82568 35.3125 4.6875C35.3125 5.54932 34.6118 6.25 33.75 6.25C32.8882 6.25 32.1875 5.54932 32.1875 4.6875ZM23.4375 15.625H36.8634C36.8671 15.625 36.8707 15.6256 36.8744 15.6256C36.8787 15.6256 36.8823 15.625 36.886 15.625H43.114C43.1177 15.625 43.1213 15.6256 43.1256 15.6256C43.1293 15.6256 43.1329 15.625 43.1366 15.625H56.5625C64.3164 15.625 70.625 21.9336 70.625 29.6875V36.8677C70.1495 36.0291 69.715 35.1672 69.3304 34.2847C68.4705 32.3138 67.8418 30.2399 67.4615 28.1201C66.4893 22.691 61.7798 18.75 56.2622 18.75H22.981C21.9592 18.75 20.9448 18.8922 19.9652 19.1736C18.0707 19.718 16.369 20.8527 15.0439 22.4542C13.8037 23.9545 12.9486 25.7892 12.5714 27.7606C11.972 30.8868 10.8832 33.9203 9.375 36.7212V29.6875C9.375 21.9336 15.6836 15.625 23.4375 15.625ZM66.3525 63.8501C59.3231 66.9641 49.718 68.75 40 68.75C30.282 68.75 20.6769 66.9641 13.6475 63.8501C6.96045 60.8868 3.125 56.9781 3.125 53.125C3.125 51.5765 3.68713 50.0305 4.79675 48.5303L9.15833 42.7991L9.22913 42.7075C12.428 38.5059 14.6454 33.5406 15.6409 28.3484C15.9198 26.8915 16.546 25.542 17.4524 24.4458C18.3746 23.3313 19.5416 22.547 20.8282 22.1771C21.5265 21.9763 22.251 21.875 22.9816 21.875H56.2628C60.2643 21.875 63.6804 24.7327 64.3854 28.6707C64.809 31.0315 65.509 33.3405 66.4661 35.5334C67.4225 37.7271 68.6377 39.8108 70.0806 41.7279L75.1978 48.5217C76.3104 50.025 76.875 51.5735 76.875 53.125C76.875 56.9781 73.0396 60.8868 66.3525 63.8501Z" fill="white"/>
<defs>
<linearGradient id="paint0_linear" x1="19.2187" y1="20.3125" x2="78.4375" y2="20.3125" gradientUnits="userSpaceOnUse">
<stop stop-color="#2DC195"/>
<stop offset="1" stop-color="#05A64F"/>
</linearGradient>
</defs>
</svg>
