<svg width="72" height="72" viewBox="0 0 72 72" fill="none" xmlns="http://www.w3.org/2000/svg">
<rect x="14" y="6" width="56" height="65" rx="4" fill="url(#paint0_linear)"/>
<path d="M69.0612 4.40816H59.5102V1.46939C59.5102 0.657845 58.8522 0 58.0408 0H52.1633C51.3519 0 50.6939 0.657845 50.6939 1.46939V4.40816H40.4082V1.46939C40.4082 0.657845 39.7502 0 38.9388 0H33.0612C32.2497 0 31.5918 0.657845 31.5918 1.46939V4.40816H21.3061V1.46939C21.3061 0.657845 20.6483 0 19.8367 0H13.9592C13.1476 0 12.4898 0.657845 12.4898 1.46939V4.40816H2.93878C1.31833 4.40816 0 5.7265 0 7.34694V69.0612C0 70.6817 1.31833 72 2.93878 72H69.0612C70.6817 72 72 70.6817 72 69.0612V7.34694C72 5.7265 70.6817 4.40816 69.0612 4.40816ZM53.6327 2.93878H56.5714V13.2245H53.6327V2.93878ZM34.5306 2.93878H37.4694V13.2245H34.5306V2.93878ZM15.4286 2.93878H18.3673V13.2245H15.4286V2.93878ZM12.4898 7.34694V14.6939C12.4898 15.5054 13.1476 16.1633 13.9592 16.1633H19.8367C20.6483 16.1633 21.3061 15.5054 21.3061 14.6939V7.34694H31.5918V14.6939C31.5918 15.5054 32.2497 16.1633 33.0612 16.1633H38.9388C39.7502 16.1633 40.4082 15.5054 40.4082 14.6939V7.34694H50.6939V14.6939C50.6939 15.5054 51.3519 16.1633 52.1633 16.1633H58.0408C58.8522 16.1633 59.5102 15.5054 59.5102 14.6939V7.34694H69.0612V20.5714H2.93878V7.34694H12.4898ZM2.93878 69.0612V23.5102H6.61224V49.2245H9.55102V23.5102H62.449V49.2245H65.3878V23.5102H69.0612V69.0612H2.93878Z" fill="white"/>
<path d="M36.0001 26.449C25.0619 26.449 16.1633 35.3477 16.1633 46.2857C16.1633 57.2237 25.0619 66.1224 36.0001 66.1224C46.9382 66.1224 55.8368 57.2238 55.8368 46.2857C55.8368 35.3476 46.9382 26.449 36.0001 26.449ZM36.0001 63.1837C26.6825 63.1837 19.1021 55.6032 19.1021 46.2857C19.1021 36.9682 26.6825 29.3877 36.0001 29.3877C45.3176 29.3877 52.898 36.9682 52.898 46.2857C52.898 55.6032 45.3176 63.1837 36.0001 63.1837Z" fill="white"/>
<path d="M36 31.5918C27.8978 31.5918 21.3062 38.1835 21.3062 46.2857C21.3062 54.3879 27.8978 60.9796 36 60.9796C44.1024 60.9796 50.6939 54.3879 50.6939 46.2857C50.6939 38.1835 44.1024 31.5918 36 31.5918ZM36 58.0408C29.5183 58.0408 24.2449 52.7674 24.2449 46.2857C24.2449 39.8039 29.5183 34.5306 36 34.5306C42.4818 34.5306 47.7551 39.8039 47.7551 46.2857C47.7551 52.7674 42.4818 58.0408 36 58.0408Z" fill="white"/>
<path d="M37.4694 37.4695H34.5306V46.2858C34.5306 47.0973 35.1885 47.7552 36 47.7552H44.8163V44.8164H37.4694V37.4695Z" fill="white"/>
<defs>
<linearGradient id="paint0_linear" x1="14" y1="6" x2="70" y2="6" gradientUnits="userSpaceOnUse">
<stop stop-color="#2DC195"/>
<stop offset="1" stop-color="#05A64F"/>
</linearGradient>
</defs>
</svg>
