<svg width="72" height="72" viewBox="0 0 72 72" fill="none" xmlns="http://www.w3.org/2000/svg">
<path d="M0 30C0 28.8954 0.895431 28 2 28H49C50.1046 28 51 28.8954 51 30V69C51 70.1046 50.1046 71 49 71H2C0.89543 71 0 70.1046 0 69V30Z" fill="url(#paint0_linear)"/>
<path d="M70.5938 44.7188H14.625V30.2844L22.1891 37.8485C22.4517 38.1105 22.8071 38.2588 23.1779 38.2599L27.7894 38.2775L30.6612 41.1493C30.9359 41.424 31.2957 41.5613 31.6555 41.5613C32.0153 41.5613 32.3751 41.424 32.6497 41.1493C33.199 40.6006 33.199 39.7101 32.6497 39.1608L29.7779 36.289L29.7603 31.678C29.7587 31.3067 29.6109 30.9513 29.3483 30.6887L12.9034 14.2433C12.8979 14.2378 12.8919 14.2334 12.8859 14.2279C11.7043 12.9601 10.0217 12.1658 8.15625 12.1658C4.58954 12.1658 1.6875 15.0673 1.6875 18.6345V55.2042C0.670715 55.8859 0 57.046 0 58.3594V70.5938C0 71.3705 0.629517 72.0001 1.40625 72.0001H70.5938C71.3705 72.0001 72 71.3705 72 70.5938V46.1251C72 45.3483 71.3705 44.7188 70.5938 44.7188ZM69.1875 47.5313V54.5626H14.625V47.5313H69.1875ZM8.15186 25.061C9.51086 25.061 10.7715 24.6375 11.8125 23.9173V54.5626H4.5V23.9233C5.53931 24.6402 6.79724 25.061 8.15186 25.061ZM26.9621 35.4623L23.7684 35.4496L14.625 26.3063V19.9424L26.95 32.268L26.9621 35.4623ZM8.15625 14.9783C10.0992 14.9783 11.6922 16.5015 11.8054 18.4164C11.7966 18.4796 11.7905 18.5439 11.7905 18.6093C11.7905 20.6159 10.1585 22.2485 8.15186 22.2485C6.14575 22.2485 4.51318 20.6159 4.51318 18.6093C4.51318 18.5576 4.50989 18.506 4.50439 18.4554C4.59778 16.5219 6.20013 14.9783 8.15625 14.9783ZM2.8125 58.3594C2.8125 57.8167 3.25415 57.3751 3.79688 57.3751H12.5156C13.0583 57.3751 13.5 57.8167 13.5 58.3594V69.1876H2.8125V58.3594ZM16.3125 69.1876V58.3594C16.3125 58.0189 16.2669 57.6893 16.1823 57.3751H69.1875V60.2227H57.7969C57.0201 60.2227 56.3906 60.8522 56.3906 61.629C56.3906 62.4057 57.0201 63.0352 57.7969 63.0352H69.1875V69.1876H16.3125Z" fill="white"/>
<path d="M36.7031 52.4531C37.0728 52.4531 37.4359 52.3026 37.6974 52.0411C37.9589 51.7797 38.1094 51.4166 38.1094 51.0469C38.1094 50.6772 37.9589 50.3141 37.6974 50.0526C37.4359 49.7911 37.0728 49.6406 36.7031 49.6406C36.3334 49.6406 35.9703 49.7911 35.7089 50.0526C35.4474 50.3141 35.2969 50.6772 35.2969 51.0469C35.2969 51.4166 35.4474 51.7797 35.7089 52.0411C35.9703 52.3026 36.3334 52.4531 36.7031 52.4531Z" fill="white"/>
<path d="M27.7031 52.4531C28.0728 52.4531 28.4359 52.3026 28.6974 52.0411C28.9589 51.7797 29.1094 51.4166 29.1094 51.0469C29.1094 50.6772 28.9589 50.3141 28.6974 50.0526C28.4359 49.7911 28.0728 49.6406 27.7031 49.6406C27.3334 49.6406 26.9703 49.7911 26.7089 50.0526C26.4474 50.3141 26.2969 50.6772 26.2969 51.0469C26.2969 51.4166 26.4474 51.7797 26.7089 52.0411C26.9703 52.3026 27.3334 52.4531 27.7031 52.4531Z" fill="white"/>
<path d="M17.7089 52.0411C17.9703 52.3026 18.3334 52.4531 18.7031 52.4531C19.0728 52.4531 19.4359 52.3026 19.6974 52.0411C19.9589 51.7797 20.1094 51.4166 20.1094 51.0469C20.1094 50.6772 19.9589 50.3141 19.6974 50.0526C19.4359 49.7911 19.0728 49.6406 18.7031 49.6406C18.3334 49.6406 17.9703 49.7911 17.7089 50.0526C17.4474 50.3141 17.2969 50.6772 17.2969 51.0469C17.2969 51.4166 17.4474 51.7797 17.7089 52.0411Z" fill="white"/>
<path d="M63.7031 52.4531C64.0728 52.4531 64.4359 52.3026 64.6974 52.0411C64.9589 51.7797 65.1094 51.4166 65.1094 51.0469C65.1094 50.6772 64.9589 50.3141 64.6974 50.0526C64.4359 49.7911 64.0728 49.6406 63.7031 49.6406C63.3334 49.6406 62.9703 49.7911 62.7089 50.0526C62.4474 50.3141 62.2969 50.6772 62.2969 51.0469C62.2969 51.4166 62.4474 51.7797 62.7089 52.0411C62.9703 52.3026 63.3334 52.4531 63.7031 52.4531Z" fill="white"/>
<path d="M45.7031 52.4531C46.0728 52.4531 46.4359 52.3026 46.6974 52.0411C46.9589 51.7797 47.1094 51.4166 47.1094 51.0469C47.1094 50.6772 46.9589 50.3141 46.6974 50.0526C46.4359 49.7911 46.0728 49.6406 45.7031 49.6406C45.3334 49.6406 44.9703 49.7911 44.7089 50.0526C44.4474 50.3141 44.2969 50.6772 44.2969 51.0469C44.2969 51.4166 44.4474 51.7797 44.7089 52.0411C44.9703 52.3026 45.3334 52.4531 45.7031 52.4531Z" fill="white"/>
<path d="M54.7031 52.4531C55.0728 52.4531 55.4359 52.3026 55.6974 52.0411C55.9589 51.7797 56.1094 51.4166 56.1094 51.0469C56.1094 50.6755 55.9589 50.3141 55.6974 50.0526C55.4359 49.7911 55.0745 49.6406 54.7031 49.6406C54.3318 49.6406 53.9703 49.7911 53.7089 50.0526C53.4474 50.3141 53.2969 50.6755 53.2969 51.0469C53.2969 51.4166 53.4474 51.7797 53.7089 52.0411C53.9703 52.3026 54.3334 52.4531 54.7031 52.4531Z" fill="white"/>
<path d="M8.15186 20.0149C8.52209 20.0149 8.88464 19.866 9.14612 19.6029C9.40759 19.3414 9.55811 18.9789 9.55811 18.6086C9.55811 18.239 9.40759 17.8764 9.14612 17.6149C8.88464 17.3529 8.52209 17.2024 8.15186 17.2024C7.78217 17.2024 7.41962 17.3529 7.15759 17.6149C6.89612 17.8764 6.74561 18.239 6.74561 18.6086C6.74561 18.98 6.89612 19.3414 7.15759 19.6029C7.41962 19.866 7.78217 20.0149 8.15186 20.0149Z" fill="white"/>
<path d="M70.5938 0H1.40625C0.629517 0 0 0.629517 0 1.40625V7.03125C0 7.80798 0.629517 8.4375 1.40625 8.4375H12.5156C13.2924 8.4375 13.9219 7.80798 13.9219 7.03125C13.9219 6.25452 13.2924 5.625 12.5156 5.625H2.8125V2.8125H69.1875V5.625H37.4062V5.20312C37.4062 4.42639 36.7767 3.79688 36 3.79688C35.2233 3.79688 34.5938 4.42639 34.5938 5.20312V5.625H25.5938C24.817 5.625 24.1875 6.25452 24.1875 7.03125C24.1875 7.80798 24.817 8.4375 25.5938 8.4375H34.5938V14.6552L30.9913 18.2576C30.7277 18.5219 30.5793 18.8795 30.5793 19.2519V22.5033C30.5793 22.8763 30.7277 23.2339 30.9913 23.4976L32.5063 25.0126C32.781 25.2872 33.1408 25.4246 33.5006 25.4246C33.8604 25.4246 34.2202 25.2872 34.4949 25.0126C35.0442 24.4633 35.0442 23.5728 34.4949 23.0235L33.3918 21.9205V19.8347L36 17.2266L38.6082 19.8347V21.921L37.5447 22.9845C36.9954 23.5338 36.9954 24.4243 37.5447 24.9736C38.0934 25.5229 38.9844 25.5223 39.5332 24.9736L41.0087 23.4976C41.2723 23.2339 41.4207 22.8763 41.4207 22.5033V19.2524C41.4207 18.8795 41.2723 18.5219 41.0087 18.2582L37.4062 14.6552V8.4375H55.1591C54.6031 9.33783 54.2812 10.3975 54.2812 11.5312C54.2812 13.1578 54.9421 14.6327 56.0094 15.7017C55.9836 15.8077 55.9688 15.9175 55.9688 16.0312V25.7393L48.5272 33.1815C47.2308 34.4778 46.9572 36.4142 47.7037 37.9819L45.4796 40.2061C44.9308 40.7554 44.9308 41.6459 45.4796 42.1952C45.7542 42.4698 46.1146 42.6072 46.4744 42.6072C46.8342 42.6072 47.194 42.4698 47.4686 42.1952L49.6906 39.9727C50.252 40.2413 50.87 40.3835 51.5105 40.3835C52.6371 40.3835 53.6968 39.9446 54.4933 39.1476L62.4485 31.1924C63.6246 30.4426 64.4062 29.1281 64.4062 27.6339V16.0312C64.4062 15.9175 64.3914 15.8077 64.3656 15.7017C65.4329 14.6327 66.0938 13.1578 66.0938 11.5312C66.0938 10.3975 65.7719 9.33783 65.2159 8.4375H70.5938C71.3705 8.4375 72 7.80798 72 7.03125V1.40625C72 0.629517 71.3705 0 70.5938 0V0ZM61.5938 27.6339C61.5938 28.1019 61.363 28.5161 61.0098 28.7721C60.9329 28.8083 60.8582 28.8523 60.7874 28.9034C60.605 28.9902 60.4023 29.0402 60.1875 29.0402C59.4119 29.0402 58.7812 28.409 58.7812 27.6339V17.2672C59.2322 17.3776 59.703 17.4375 60.1875 17.4375C60.672 17.4375 61.1428 17.3776 61.5938 17.2672V27.6339ZM52.5048 37.1591C52.2389 37.4244 51.8862 37.571 51.5105 37.571C51.1348 37.571 50.7821 37.4249 50.5168 37.1596C50.5162 37.1596 50.5162 37.1591 50.5157 37.1591C50.5157 37.1591 50.5157 37.1585 50.5151 37.1585C49.9675 36.6103 49.968 35.7182 50.5157 35.1705L56.3357 29.3505C56.7296 30.2316 57.4167 30.9529 58.2726 31.3912L52.5048 37.1591ZM63.2812 11.5312C63.2812 13.2374 61.8937 14.625 60.1875 14.625C58.4813 14.625 57.0938 13.2374 57.0938 11.5312C57.0938 9.82507 58.4813 8.4375 60.1875 8.4375C61.8937 8.4375 63.2812 9.82507 63.2812 11.5312Z" fill="white"/>
<path d="M20.4005 8.02551C20.662 7.76404 20.8125 7.40094 20.8125 7.03125C20.8125 6.66156 20.662 6.29846 20.4005 6.03699C20.139 5.77551 19.7776 5.625 19.4062 5.625C19.0366 5.625 18.6735 5.77551 18.412 6.03699C18.1505 6.29846 18 6.66156 18 7.03125C18 7.40094 18.1505 7.76404 18.412 8.02551C18.6735 8.28699 19.0366 8.4375 19.4062 8.4375C19.7759 8.4375 20.139 8.28699 20.4005 8.02551Z" fill="white"/>
<path d="M60.1875 12.9375C60.5572 12.9375 60.9203 12.787 61.1818 12.5255C61.4432 12.264 61.5938 11.9009 61.5938 11.5312C61.5938 11.1616 61.4432 10.7985 61.1818 10.537C60.9203 10.2755 60.5572 10.125 60.1875 10.125C59.8178 10.125 59.4547 10.2755 59.1932 10.537C58.9318 10.7985 58.7812 11.1616 58.7812 11.5312C58.7812 11.9009 58.9318 12.264 59.1932 12.5255C59.4547 12.787 59.8178 12.9375 60.1875 12.9375Z" fill="white"/>
<path d="M8.15625 59.5547C6.10126 59.5547 4.42969 61.2263 4.42969 63.2812C4.42969 65.3362 6.10126 67.0078 8.15625 67.0078C10.2112 67.0078 11.8828 65.3362 11.8828 63.2812C11.8828 61.2263 10.2112 59.5547 8.15625 59.5547ZM8.15625 64.1953C7.65198 64.1953 7.24219 63.7855 7.24219 63.2812C7.24219 62.777 7.65198 62.3672 8.15625 62.3672C8.66052 62.3672 9.07031 62.777 9.07031 63.2812C9.07031 63.7855 8.66052 64.1953 8.15625 64.1953Z" fill="white"/>
<path d="M52.1829 60.2227C51.8132 60.2227 51.4517 60.3732 51.1891 60.6346C50.9271 60.8961 50.7766 61.2592 50.7766 61.6289C50.7766 61.9986 50.9271 62.3617 51.1891 62.6232C51.4517 62.8846 51.8132 63.0352 52.1829 63.0352C52.5531 63.0352 52.9156 62.8846 53.1771 62.6232C53.4386 62.3617 53.5891 61.9986 53.5891 61.6289C53.5891 61.2592 53.4391 60.8961 53.1771 60.6346C52.9156 60.3732 52.5531 60.2227 52.1829 60.2227Z" fill="white"/>
<defs>
<linearGradient id="paint0_linear" x1="0" y1="28" x2="51" y2="28" gradientUnits="userSpaceOnUse">
<stop stop-color="#2DC195"/>
<stop offset="1" stop-color="#05A64F"/>
</linearGradient>
</defs>
</svg>
