<svg width="136" height="19" viewBox="0 0 136 19" fill="none" xmlns="http://www.w3.org/2000/svg">
<path d="M32.3528 5.69092V13.3752H30.5854V7.13997H27.1165V13.3752H25.3491V5.69092H32.3528ZM39.8672 10.4442C39.8672 10.4662 39.8562 10.6199 39.8343 10.9053H35.3664C35.4469 11.2712 35.6372 11.5603 35.9372 11.7725C36.2373 11.9847 36.6105 12.0909 37.057 12.0909C37.3643 12.0909 37.6351 12.047 37.8693 11.9591C38.1108 11.864 38.334 11.7176 38.5389 11.52L39.4501 12.508C38.8939 13.1447 38.0815 13.4631 37.0131 13.4631C36.3471 13.4631 35.7579 13.335 35.2457 13.0788C34.7334 12.8154 34.3382 12.4531 34.0601 11.9921C33.782 11.531 33.6429 11.0077 33.6429 10.4223C33.6429 9.84412 33.7783 9.32451 34.0491 8.86345C34.3272 8.39507 34.7041 8.03281 35.1798 7.77667C35.6628 7.51321 36.2007 7.38147 36.7935 7.38147C37.3717 7.38147 37.8949 7.50589 38.3633 7.75471C38.8317 8.00354 39.1976 8.36214 39.4611 8.83052C39.7318 9.29158 39.8672 9.82948 39.8672 10.4442ZM36.8045 8.67683C36.4166 8.67683 36.0909 8.78661 35.8275 9.00616C35.564 9.22571 35.403 9.52577 35.3445 9.90632H38.2535C38.195 9.53308 38.034 9.23669 37.7705 9.01714C37.507 8.79027 37.185 8.67683 36.8045 8.67683ZM41.1799 7.4693H42.8814V9.77459H45.4502V7.4693H47.1627V13.3752H45.4502V11.1687H42.8814V13.3752H41.1799V7.4693ZM52.5796 10.3015C52.9309 10.4113 53.2017 10.5796 53.392 10.8065C53.5896 11.0334 53.6884 11.3041 53.6884 11.6188C53.6884 11.9921 53.5603 12.3214 53.3042 12.6068C53.048 12.8849 52.6967 13.1008 52.2503 13.2545C51.8039 13.4082 51.2989 13.485 50.7354 13.485C50.2743 13.485 49.8206 13.4375 49.3742 13.3423C48.9277 13.2472 48.5143 13.1045 48.1337 12.9142L48.5948 11.7176C49.2168 12.0177 49.9048 12.1677 50.6585 12.1677C51.0611 12.1677 51.3758 12.1092 51.6026 11.9921C51.8368 11.8677 51.9539 11.6957 51.9539 11.4761C51.9539 11.2858 51.8734 11.1431 51.7124 11.048C51.5514 10.9455 51.3172 10.8943 51.0098 10.8943H49.8023V9.82948H50.8561C51.1562 9.82948 51.3867 9.78191 51.5477 9.68677C51.7087 9.59163 51.7892 9.45258 51.7892 9.26962C51.7892 9.07934 51.6868 8.93298 51.4819 8.83052C51.2843 8.72806 50.9989 8.67683 50.6256 8.67683C50.0548 8.67683 49.4327 8.81222 48.7594 9.083L48.3423 7.89742C49.1619 7.53882 49.9596 7.35952 50.7354 7.35952C51.2696 7.35952 51.7453 7.42539 52.1625 7.55712C52.5869 7.68885 52.9199 7.88279 53.1614 8.13893C53.4029 8.38775 53.5237 8.68049 53.5237 9.01714C53.5237 9.29524 53.4395 9.54772 53.2712 9.77459C53.1029 9.99414 52.8724 10.1698 52.5796 10.3015ZM57.2284 7.38147C58.1432 7.38147 58.8458 7.60103 59.3361 8.04013C59.8264 8.47192 60.0716 9.12691 60.0716 10.0051V13.3752H58.4689V12.6397C58.1468 13.1886 57.5467 13.4631 56.6685 13.4631C56.2148 13.4631 55.8196 13.3862 55.4829 13.2325C55.1536 13.0788 54.9011 12.8666 54.7255 12.5958C54.5499 12.3251 54.462 12.0177 54.462 11.6737C54.462 11.1248 54.6669 10.6931 55.0768 10.3784C55.4939 10.0637 56.1343 9.90632 56.9979 9.90632H58.3591C58.3591 9.53308 58.2456 9.24767 58.0188 9.05007C57.7919 8.84515 57.4516 8.7427 56.9979 8.7427C56.6832 8.7427 56.3721 8.79393 56.0648 8.89638C55.7647 8.99152 55.5086 9.12325 55.2963 9.29158L54.6816 8.09502C55.0036 7.86815 55.3878 7.69251 55.8342 7.56809C56.288 7.44368 56.7527 7.38147 57.2284 7.38147ZM57.0967 12.3104C57.3894 12.3104 57.6492 12.2446 57.8761 12.1128C58.1029 11.9738 58.2639 11.7725 58.3591 11.5091V10.9053H57.1845C56.4819 10.9053 56.1306 11.1358 56.1306 11.5969C56.1306 11.8164 56.2148 11.9921 56.3831 12.1238C56.5588 12.2482 56.7966 12.3104 57.0967 12.3104ZM68.6947 5.69092V13.3752H66.9273V7.13997H63.4583V13.3752H61.691V5.69092H68.6947ZM73.9477 7.38147C74.4966 7.38147 74.9942 7.50955 75.4407 7.76569C75.8944 8.01452 76.2493 8.36946 76.5055 8.83052C76.7616 9.28426 76.8897 9.81484 76.8897 10.4223C76.8897 11.0297 76.7616 11.5639 76.5055 12.025C76.2493 12.4787 75.8944 12.8337 75.4407 13.0898C74.9942 13.3387 74.4966 13.4631 73.9477 13.4631C73.1939 13.4631 72.6011 13.2252 72.1693 12.7495V15.5049H70.4568V7.4693H72.0925V8.14991C72.5169 7.63762 73.1354 7.38147 73.9477 7.38147ZM73.6513 12.0579C74.0904 12.0579 74.449 11.9116 74.7271 11.6188C75.0125 11.3188 75.1552 10.9199 75.1552 10.4223C75.1552 9.92462 75.0125 9.52943 74.7271 9.23669C74.449 8.93663 74.0904 8.78661 73.6513 8.78661C73.2122 8.78661 72.8499 8.93663 72.5645 9.23669C72.2864 9.52943 72.1474 9.92462 72.1474 10.4223C72.1474 10.9199 72.2864 11.3188 72.5645 11.6188C72.8499 11.9116 73.2122 12.0579 73.6513 12.0579ZM80.8563 13.4631C80.2342 13.4631 79.6744 13.335 79.1767 13.0788C78.6864 12.8154 78.3022 12.4531 78.0241 11.9921C77.746 11.531 77.6069 11.0077 77.6069 10.4223C77.6069 9.8368 77.746 9.31353 78.0241 8.85247C78.3022 8.39141 78.6864 8.03281 79.1767 7.77667C79.6744 7.51321 80.2342 7.38147 80.8563 7.38147C81.4784 7.38147 82.0346 7.51321 82.5249 7.77667C83.0152 8.03281 83.3994 8.39141 83.6775 8.85247C83.9556 9.31353 84.0947 9.8368 84.0947 10.4223C84.0947 11.0077 83.9556 11.531 83.6775 11.9921C83.3994 12.4531 83.0152 12.8154 82.5249 13.0788C82.0346 13.335 81.4784 13.4631 80.8563 13.4631ZM80.8563 12.0579C81.2954 12.0579 81.654 11.9116 81.9321 11.6188C82.2175 11.3188 82.3602 10.9199 82.3602 10.4223C82.3602 9.92462 82.2175 9.52943 81.9321 9.23669C81.654 8.93663 81.2954 8.78661 80.8563 8.78661C80.4172 8.78661 80.0549 8.93663 79.7695 9.23669C79.4841 9.52943 79.3414 9.92462 79.3414 10.4223C79.3414 10.9199 79.4841 11.3188 79.7695 11.6188C80.0549 11.9116 80.4172 12.0579 80.8563 12.0579ZM91.0358 13.3752V9.84046L89.2684 12.8044H88.5439L86.8204 9.82948V13.3752H85.2725V7.4693H87.0619L88.95 10.8833L90.9589 7.4693H92.5617L92.5836 13.3752H91.0358ZM97.9893 13.507C97.2063 13.507 96.4964 13.3387 95.8597 13.002C95.2303 12.658 94.7326 12.186 94.3667 11.5859C94.0081 10.9785 93.8288 10.2942 93.8288 9.53308C93.8288 8.77197 94.0081 8.09136 94.3667 7.49125C94.7326 6.88382 95.2303 6.41179 95.8597 6.07514C96.4964 5.73118 97.2099 5.55919 98.0003 5.55919C98.6663 5.55919 99.2664 5.67629 99.8006 5.91048C100.342 6.14467 100.796 6.48131 101.162 6.92042L100.02 7.97427C99.5006 7.37416 98.8566 7.0741 98.0881 7.0741C97.6124 7.0741 97.188 7.18022 96.8147 7.39245C96.4415 7.59737 96.1487 7.88644 95.9365 8.25968C95.7316 8.63292 95.6291 9.05739 95.6291 9.53308C95.6291 10.0088 95.7316 10.4332 95.9365 10.8065C96.1487 11.1797 96.4415 11.4725 96.8147 11.6847C97.188 11.8896 97.6124 11.9921 98.0881 11.9921C98.8566 11.9921 99.5006 11.6884 100.02 11.0809L101.162 12.1348C100.796 12.5812 100.342 12.9215 99.8006 13.1557C99.2591 13.3899 98.6553 13.507 97.9893 13.507ZM106.99 8.87443H104.992V13.3752H103.291V8.87443H101.293V7.4693H106.99V8.87443ZM113.398 10.4442C113.398 10.4662 113.387 10.6199 113.365 10.9053H108.897C108.978 11.2712 109.168 11.5603 109.468 11.7725C109.768 11.9847 110.141 12.0909 110.588 12.0909C110.895 12.0909 111.166 12.047 111.4 11.9591C111.641 11.864 111.865 11.7176 112.07 11.52L112.981 12.508C112.424 13.1447 111.612 13.4631 110.544 13.4631C109.878 13.4631 109.289 13.335 108.776 13.0788C108.264 12.8154 107.869 12.4531 107.591 11.9921C107.313 11.531 107.174 11.0077 107.174 10.4223C107.174 9.84412 107.309 9.32451 107.58 8.86345C107.858 8.39507 108.235 8.03281 108.71 7.77667C109.193 7.51321 109.731 7.38147 110.324 7.38147C110.902 7.38147 111.426 7.50589 111.894 7.75471C112.362 8.00354 112.728 8.36214 112.992 8.83052C113.262 9.29158 113.398 9.82948 113.398 10.4442ZM110.335 8.67683C109.947 8.67683 109.622 8.78661 109.358 9.00616C109.095 9.22571 108.934 9.52577 108.875 9.90632H111.784C111.726 9.53308 111.565 9.23669 111.301 9.01714C111.038 8.79027 110.716 8.67683 110.335 8.67683ZM117.312 11.1358H116.423V13.3752H114.711V7.4693H116.423V9.76361H117.345L118.948 7.4693H120.77L118.706 10.3015L120.913 13.3752H118.893L117.312 11.1358ZM127.418 7.4693V13.3752H125.706V8.87443H123.84L123.785 9.9173C123.755 10.6931 123.682 11.3371 123.565 11.8494C123.448 12.3616 123.258 12.7642 122.994 13.0569C122.731 13.3496 122.365 13.496 121.896 13.496C121.648 13.496 121.351 13.4521 121.007 13.3643L121.095 11.9591C121.212 11.9738 121.296 11.9811 121.348 11.9811C121.604 11.9811 121.794 11.8896 121.918 11.7066C122.05 11.5164 122.138 11.2785 122.182 10.9931C122.226 10.7004 122.259 10.3162 122.281 9.84046L122.369 7.4693H127.418ZM131.831 13.4631C131.209 13.4631 130.649 13.335 130.152 13.0788C129.661 12.8154 129.277 12.4531 128.999 11.9921C128.721 11.531 128.582 11.0077 128.582 10.4223C128.582 9.8368 128.721 9.31353 128.999 8.85247C129.277 8.39141 129.661 8.03281 130.152 7.77667C130.649 7.51321 131.209 7.38147 131.831 7.38147C132.453 7.38147 133.01 7.51321 133.5 7.77667C133.99 8.03281 134.375 8.39141 134.653 8.85247C134.931 9.31353 135.07 9.8368 135.07 10.4223C135.07 11.0077 134.931 11.531 134.653 11.9921C134.375 12.4531 133.99 12.8154 133.5 13.0788C133.01 13.335 132.453 13.4631 131.831 13.4631ZM131.831 12.0579C132.27 12.0579 132.629 11.9116 132.907 11.6188C133.193 11.3188 133.335 10.9199 133.335 10.4223C133.335 9.92462 133.193 9.52943 132.907 9.23669C132.629 8.93663 132.27 8.78661 131.831 8.78661C131.392 8.78661 131.03 8.93663 130.745 9.23669C130.459 9.52943 130.316 9.92462 130.316 10.4223C130.316 10.9199 130.459 11.3188 130.745 11.6188C131.03 11.9116 131.392 12.0579 131.831 12.0579Z" fill="white"/>
<path d="M19.5157 13.4785V10.0156H10.2876V19H19.5157V15.5374H13.7658V13.4785H19.5157Z" fill="white"/>
<path d="M5.29834 5.70508V19H9.52353V9.75746L5.29834 5.70508Z" fill="white"/>
<path d="M0.438721 0L5.04084 4.41414H19.5155V0H0.438721Z" fill="white"/>
<path d="M0 0.623535V19.0001H4.53389V4.97211L0 0.623535Z" fill="white"/>
<path d="M10.1059 9.27184H19.516V5.15796H5.81689L10.1059 9.27184Z" fill="white"/>
</svg>
